<svg xmlns="http://www.w3.org/2000/svg" viewBox="0 0 140 96"><defs><style>.cls-1{fill:#fff;}.cls-2{fill:#000e8f;}</style></defs><title>card-dinersclub</title><g id="Credit_Cards" data-name="Credit Cards"><g id="dinner_club" data-name="dinner club"><rect class="cls-1" width="140" height="96" rx="8" ry="8"/><path class="cls-2" d="M62.17,15.5H77.82A32.18,32.18,0,0,1,110,47.68v.65A32.18,32.18,0,0,1,77.82,80.5H62.17A32.17,32.17,0,0,1,30,48.33v-.65A32.17,32.17,0,0,1,62.17,15.5Z"/><path class="cls-1" d="M64.27,21.74A26.36,26.36,0,1,0,90.62,48.1,26.36,26.36,0,0,0,64.27,21.74ZM45.56,48.1A17.87,17.87,0,0,1,59.31,30.36V65.83A17.86,17.86,0,0,1,45.56,48.1ZM67.65,65.83V30.36A17.87,17.87,0,0,1,81.4,48.1,17.86,17.86,0,0,1,67.65,65.83Z"/></g></g></svg>