<svg xmlns="http://www.w3.org/2000/svg" viewBox="0 0 140 96"><title>card-wifi</title><g id="Credit_Cards" data-name="Credit Cards"><path d="M128.49,26.35A81.74,81.74,0,0,0,70,1.94,81,81,0,0,0,11.51,26.35a4.44,4.44,0,0,0,0,6.45L18,39.25a4.46,4.46,0,0,0,6.45,0,64.51,64.51,0,0,1,91.2,0,4.46,4.46,0,0,0,6.45,0l6.44-6.45a4.18,4.18,0,0,0,1.39-3.22C129.88,28.2,129.41,26.81,128.49,26.35Z"/><path d="M70,38.79A44.79,44.79,0,0,0,37.76,52.15a4.45,4.45,0,0,0,0,6.44L44.21,65a4.46,4.46,0,0,0,6.45,0A27.11,27.11,0,0,1,70,57.21,29.24,29.24,0,0,1,89.34,65a4.46,4.46,0,0,0,6.45,0l6.45-6.45a4.45,4.45,0,0,0,0-6.44A44.79,44.79,0,0,0,70,38.79Z"/><circle cx="70" cy="84.85" r="9.21"/></g></svg>