<svg xmlns="http://www.w3.org/2000/svg" viewBox="0 0 140 96"><defs><style>.cls-1{fill:#fff;}.cls-2{fill:#000e8f;}.cls-3{fill:#fc0;}</style></defs><title>card-visa</title><g id="Credit_Cards" data-name="Credit Cards"><g id="visa"><rect class="cls-1" width="140" height="96" rx="8" ry="8"/><polygon class="cls-2" points="51.46 64.68 57.13 31.41 66.19 31.41 60.52 64.68 51.46 64.68"/><path class="cls-2" d="M93.41,32.23a23.28,23.28,0,0,0-8.13-1.4c-9,0-15.27,4.51-15.32,11,0,4.78,4.5,7.45,7.94,9s4.72,2.67,4.7,4.12c0,2.23-2.82,3.25-5.42,3.25a19.06,19.06,0,0,1-8.54-1.74L67.47,56,66.2,63.39a28.61,28.61,0,0,0,10.1,1.78c9.53,0,15.72-4.46,15.79-11.37,0-3.78-2.38-6.66-7.61-9-3.17-1.54-5.11-2.57-5.09-4.13,0-1.38,1.64-2.86,5.19-2.86a16.76,16.76,0,0,1,6.79,1.27l.81.39,1.23-7.21"/><path class="cls-2" d="M116.66,31.44h-7c-2.17,0-3.79.59-4.74,2.76L91.44,64.69H101s1.56-4.1,1.91-5h11.61c.27,1.17,1.11,5,1.11,5H124l-7.34-33.25M105.48,52.88c.75-1.91,3.61-9.3,3.61-9.3s.75-1.92,1.2-3.17l.62,2.87s1.73,7.94,2.1,9.6Z"/><path class="cls-2" d="M43.85,31.43,35,54.12,34,49.51c-1.66-5.32-6.8-11.07-12.56-14l8.12,29.1h9.59L53.46,31.43H43.85"/><path class="cls-3" d="M26.74,31.41H12.12L12,32.1c11.38,2.76,18.9,9.41,22,17.41L30.85,34.22c-.55-2.11-2.14-2.73-4.11-2.81"/></g></g></svg>