<svg xmlns="http://www.w3.org/2000/svg" viewBox="0 0 140 96"><title>card-garden</title><g id="Credit_Cards" data-name="Credit Cards"><path d="M46.94,28.48a31.14,31.14,0,0,1,3.54-3.54L41.55,16A2.5,2.5,0,1,0,38,19.55Z"/><path d="M39.78,48c0-.84,0-1.67.12-2.5H27.27a2.5,2.5,0,1,0,0,5H39.9C39.83,49.67,39.78,48.84,39.78,48Z"/><path d="M93.06,28.48,102,19.55A2.5,2.5,0,0,0,98.45,16l-8.93,8.92A31.14,31.14,0,0,1,93.06,28.48Z"/><path d="M70,17.78c.84,0,1.67,0,2.5.12V5.27a2.5,2.5,0,1,0-5,0V17.9C68.33,17.83,69.16,17.78,70,17.78Z"/><path d="M93.06,67.52a31.14,31.14,0,0,1-3.54,3.54L98.45,80a2.5,2.5,0,0,0,1.77.74A2.46,2.46,0,0,0,102,80a2.49,2.49,0,0,0,0-3.53Z"/><path d="M112.73,45.5H100.1c.07.83.12,1.66.12,2.5s0,1.67-.12,2.5h12.63a2.5,2.5,0,1,0,0-5Z"/><path d="M46.94,67.52,38,76.45A2.5,2.5,0,1,0,41.55,80l8.93-8.92A31.14,31.14,0,0,1,46.94,67.52Z"/><path d="M70,78.22c-.84,0-1.67,0-2.5-.12V90.73a2.5,2.5,0,1,0,5,0V78.1C71.67,78.17,70.84,78.22,70,78.22Z"/><circle cx="70" cy="48" r="19.52"/></g></svg>