<svg xmlns="http://www.w3.org/2000/svg" viewBox="0 0 140 96"><title>card-bitcoin</title><g id="Credit_Cards" data-name="Credit Cards"><path d="M95.07,49.85a13.63,13.63,0,0,0-7.92-4.66q6.75-3.44,5.93-11.68a11.52,11.52,0,0,0-1.65-5.18,10.32,10.32,0,0,0-3.74-3.53,20.68,20.68,0,0,0-5.11-2,40.07,40.07,0,0,0-6.34-1V10.33h-7V21.42c-1.21,0-3,0-5.53.09V10.33h-7V21.74c-1,0-2.46.05-4.39.05l-9.6-.05v7.43h5c2.29,0,3.63,1,4,3.08v13a4.67,4.67,0,0,1,.72,0h-.72v18.2a2.43,2.43,0,0,1-2.63,2.31h-5l-1.41,8.29h9.06l2.49,0c1.08,0,1.9,0,2.44,0V85.67h7V74.26c1.26,0,3.1,0,5.52,0V85.67h7V74.12a52.81,52.81,0,0,0,6.59-.68,26.7,26.7,0,0,0,5.5-1.56,14.83,14.83,0,0,0,4.39-2.65,12.39,12.39,0,0,0,2.92-4,17,17,0,0,0,1.47-5.66Q97.7,53.26,95.07,49.85ZM63.88,29.66l1.79,0,2.44-.05c.65,0,1.53,0,2.63.12a24.89,24.89,0,0,1,2.78.36,14.9,14.9,0,0,1,2.49.75,6.84,6.84,0,0,1,2.18,1.26A6.47,6.47,0,0,1,79.57,34a6,6,0,0,1,.56,2.64,6.29,6.29,0,0,1-.4,2.31,4.29,4.29,0,0,1-1.23,1.75,12.46,12.46,0,0,1-1.67,1.22,7.55,7.55,0,0,1-2.2.84c-.89.21-1.66.37-2.33.5a18.42,18.42,0,0,1-2.49.24c-1,0-1.75.08-2.26.09s-1.22,0-2.11,0l-1.56,0V29.66Zm19,30.83a6.62,6.62,0,0,1-1.11,1.82A6.23,6.23,0,0,1,80,63.66a14.61,14.61,0,0,1-2.15,1,16,16,0,0,1-2.51.64c-1,.18-1.84.31-2.58.38s-1.63.14-2.65.19-1.83.06-2.4.06l-2.18,0-1.67,0V50.53l2.15,0c1.19,0,2.17-.05,2.92-.05s1.8.05,3.12.14a26.62,26.62,0,0,1,3.35.41,22.62,22.62,0,0,1,3,.83A8.68,8.68,0,0,1,81,53.2a6.73,6.73,0,0,1,1.68,2.09,6.06,6.06,0,0,1,.68,2.9A5.89,5.89,0,0,1,82.92,60.49Z"/></g></svg>