<svg xmlns="http://www.w3.org/2000/svg" viewBox="0 0 140 96"><title>card-pets</title><g id="Credit_Cards" data-name="Credit Cards"><path d="M92.73,48.06a30.61,30.61,0,0,0-21.84-9A31,31,0,0,0,40.22,70.17v4.35A17.31,17.31,0,0,0,65.74,89.75a11,11,0,0,1,10.52,0,17.31,17.31,0,0,0,25.52-15.23V69.86A30.56,30.56,0,0,0,92.73,48.06Z"/><path d="M38.16,31.37l-1.67-1.21a11.74,11.74,0,0,0-16.38,2.59h0a11.75,11.75,0,0,0,2.6,16.39l1.66,1.21a11.73,11.73,0,1,0,13.79-19Z"/><path d="M121.89,33a11.74,11.74,0,0,0-16.38-2.59l-1.67,1.21a11.73,11.73,0,0,0,13.79,19l1.66-1.22A11.73,11.73,0,0,0,121.89,33Z"/><path d="M67,19.48l-1.7-5.21A11.73,11.73,0,0,0,43,21.51l1.7,5.22a11.75,11.75,0,0,0,14.78,7.53h0A11.74,11.74,0,0,0,67,19.48Z"/><path d="M91.49,6.84a11.73,11.73,0,0,0-14.77,7.53L75,19.58A11.75,11.75,0,0,0,86.17,34.94a11.76,11.76,0,0,0,11.16-8.11L99,21.62A11.75,11.75,0,0,0,91.49,6.84Z"/></g></svg>