<svg xmlns="http://www.w3.org/2000/svg" viewBox="0 0 140 96"><title>card-accessible</title><g id="Credit_Cards" data-name="Credit Cards"><g id="_Group_" data-name="&lt;Group&gt;"><path id="_Path_" data-name="&lt;Path&gt;" d="M66.31,21.43a8.65,8.65,0,1,0-8.64-8.64A8.65,8.65,0,0,0,66.31,21.43Z"/><path id="_Path_2" data-name="&lt;Path&gt;" d="M79.67,70.41a19.1,19.1,0,1,1-26-22.76v-8.1A26.72,26.72,0,1,0,85.56,76.31l-3-5.92Z"/><path id="_Path_3" data-name="&lt;Path&gt;" d="M104.85,80.67,93.28,57.91a5.1,5.1,0,0,0-4.53-2.78H73.93V51.75H86.69a4,4,0,0,0,3.8-3.81,3.8,3.8,0,0,0-3.8-3.8H73.93V32.67a7.62,7.62,0,0,0-15.23,0V57.52a7.76,7.76,0,0,0,7.77,7.76H85.64l10.17,20a5.07,5.07,0,1,0,9-4.6Z"/></g></g></svg>