<svg xmlns="http://www.w3.org/2000/svg" viewBox="0 0 140 96"><defs><style>.cls-1{fill:#fff;}.cls-2{fill:#333;}.cls-3{fill:#ff5d00;}</style></defs><title>card-discover</title><g id="Credit_Cards" data-name="Credit Cards"><rect class="cls-1" width="140" height="96" rx="8" ry="8"/><path class="cls-2" d="M15.48,38.24H10V57.46h5.48a9.91,9.91,0,0,0,6.87-2.19,9.67,9.67,0,0,0,3.47-7.38C25.82,42.23,21.6,38.24,15.48,38.24Zm4.39,14.49c-1.15,1-2.71,1.5-5.14,1.5h-1V41.53h1c2.43,0,3.93.41,5.14,1.56A6.38,6.38,0,0,1,22,47.89,6.57,6.57,0,0,1,19.87,52.73ZM31.3,57.46V38.24H27.55V57.46Zm9.18-11.83c-2.26-.81-2.89-1.38-2.89-2.42,0-1.21,1.15-2.14,2.77-2.14a3.9,3.9,0,0,1,3.06,1.56l2-2.54A8.33,8.33,0,0,0,39.73,38c-3.41,0-6,2.36-6,5.48,0,2.65,1.21,4,4.74,5.31a12.53,12.53,0,0,1,2.59,1.1,2.19,2.19,0,0,1,1.1,2,2.72,2.72,0,0,1-2.89,2.71A4.39,4.39,0,0,1,35.17,52l-2.43,2.31A7.5,7.5,0,0,0,39.38,58C43.3,58,46,55.39,46,51.64,46,48.58,44.75,47.19,40.48,45.63Zm21.58,6.76a6,6,0,0,1-4.5,2.13,6.28,6.28,0,0,1-6.46-6.63,6.42,6.42,0,0,1,6.29-6.64,6.13,6.13,0,0,1,4.67,2.19V39a9.83,9.83,0,0,0-4.61-1.15,10.09,10.09,0,0,0-10.22,10,10.22,10.22,0,0,0,14.83,8.94Zm39.08-14.15H97L91.85,51.18,86.71,38.24h-4.1L90.81,58h2Zm12.29,19.22V54.23h-6.86V49h6.63V45.81h-6.63V41.53h6.86V38.24H102.81V57.46Zm16.57,0-6.06-8.08A5.09,5.09,0,0,0,128.33,44c0-3.64-2.49-5.72-6.82-5.72h-5.59V57.46h3.75V49.79h.52l5.19,7.67Zm-9.24-10.32h-1.09V41.3h1.15c2.37,0,3.64,1,3.64,2.83S123.19,47.14,120.76,47.14Z"/><path class="cls-3" d="M73.61,37.55A10.45,10.45,0,1,0,84.06,48,10.45,10.45,0,0,0,73.61,37.55Z"/></g></svg>