<svg xmlns="http://www.w3.org/2000/svg" viewBox="0 0 140 96"><defs><style>.cls-1{fill:#8cffa9;}.cls-2,.cls-3{fill:#333;}.cls-2{fill-rule:evenodd;}</style></defs><title>card-amex</title><g id="Credit_Cards" data-name="Credit Cards"><g id="master"><rect class="cls-1" width="140" height="96" rx="8" ry="8"/><path class="cls-2" d="M60.24,52.17,52.85,35.62H43.41v23.8L32.74,35.62H24.67L14,60.38h6.43l2.19-5.61H34.79l2.33,5.61H49.43V41.91L57.5,60.38h5.61l8.21-18.06V60.38h6V35.62H67.63L60.24,52.17ZM28.78,49.44h-3.7l3.7-8.62v.27l3.69,8.35Z"/><path class="cls-3" d="M115.24,47.59l4.38-4.65L126,35.69h-7.61l-6.84,7.52-6.84-7.52H80.77V60.18H104l7.25-8.08,7.12,8.21H126l-6.38-7.52Zm-14.5,7.52H86.92V50.19h13.41V45.54H86.92V41h13.82l6.84,6.57Z"/></g></g></svg>