<svg id="Layer_1" data-name="Layer 1" xmlns="http://www.w3.org/2000/svg" viewBox="0 0 1000 1000"><defs><style>.cls-1{fill:#3c2e8e;}</style></defs><title>logo-nasjirak</title><path class="cls-1" d="M500,960A460.12,460.12,0,0,1,320.94,76.15a460.12,460.12,0,0,1,358.12,847.7A457.17,457.17,0,0,1,500,960Zm0-900A440.12,440.12,0,0,0,328.73,905.43,440.12,440.12,0,0,0,671.26,94.57,437.21,437.21,0,0,0,500,60Z"/><path class="cls-1" d="M700,512q-3.6-36.37-6.38-72.75c-.93-12.12-1.86-24.25-2.7-36.37l-.65-9.1c-.21-3-.46-6.06-.51-9.09-.15-6.06.29-12.13.24-18.19V221l8,9.8-200-41h4l-200,41,8-9.8V366.5q0,4.54.13,9.09c.09,3,.17,6.07.05,9.1s-.37,6.06-.58,9.09l-.65,9.1-2.71,36.37-3,36.37c-.48,6.07-1.07,12.13-1.6,18.19S300.6,505.94,300,512q-.9-9.09-1.68-18.19c-.53-6.06-1.12-12.12-1.6-18.19l-3-36.37-2.71-36.37-.65-9.1c-.21-3-.47-6.06-.58-9.09s0-6.06.05-9.1.14-6.06.13-9.09V212.84l8-1.64,200-41,2-.41,2,.41,200,41,8,1.64V366.5c0,6.06.39,12.13.24,18.19,0,3-.3,6.06-.51,9.09l-.65,9.1c-.84,12.12-1.77,24.25-2.7,36.37Q703.55,475.63,700,512Z"/><path class="cls-1" d="M750,750q-2.7-24.75-4.89-49.5Q744,688.13,743,675.75T741,651c-2.05-16.5-.64-33-1-49.5V552l8.34,9.86-250-42h3.32l-250,42L260,552v61.88c0,4.12,0,8.25.15,12.37.07,2.06.11,4.13.08,6.19s-.17,4.12-.35,6.19l-1,12.37q-1,12.38-2,24.75c-.67,8.25-1.41,16.5-2.16,24.75Q252.57,725.25,250,750q-2.61-24.75-4.74-49.5c-.75-8.25-1.49-16.5-2.16-24.75s-1.37-16.5-2-24.75l-1-12.37q-.27-3.11-.35-6.19c0-2.06,0-4.13.08-6.19.17-4.12.15-8.25.15-12.37V543.54l8.34-1.4,250-42,1.66-.28,1.66.28,250,42,8.34,1.4v58c-.32,16.5,1.09,33-1,49.5q-1,12.38-2,24.75t-2.15,24.75Q752.67,725.25,750,750Z"/><path class="cls-1" d="M500,434.87a82.76,82.76,0,1,1,82.75-82.76A82.84,82.84,0,0,1,500,434.87Zm0-145.51a62.76,62.76,0,1,0,62.75,62.75A62.82,62.82,0,0,0,500,289.36Z"/><path class="cls-1" d="M544.89,777c-3.19-12.63-5.75-25.27-8.11-37.9l-1.71-9.47a20,20,0,0,1-.45-4.74c0-1.58.24-3.16.25-4.74l0-18.95V625.41l10,10H455.11l10-10v94.74c0,1.58.19,3.16.24,4.74a22.55,22.55,0,0,1-.56,4.74l-1.72,9.47c-2.35,12.63-4.93,25.27-8,37.9-3-12.63-5.61-25.27-8-37.9l-1.72-9.47a22.55,22.55,0,0,1-.56-4.74c.05-1.58.25-3.16.24-4.74V615.41H554.89V720.15c0,1.58.2,3.16.25,4.74a20,20,0,0,1-.45,4.74L553,739.1C550.63,751.73,548.07,764.37,544.89,777Z"/><path class="cls-1" d="M679.17,762.87c-3.2-8.47-5.77-16.94-8.14-25.41l-1.72-6.35a8.92,8.92,0,0,1-.4-3.18c.07-1.06.25-2.12.25-3.17V661.22l10,10H626.34l10-10v67.29c0,1.12,0,2.24,0,3.36a14,14,0,0,1,.13,3.36c-.18,1.13-.57,2.25-.85,3.37l-.91,3.36c-2.49,9-5.15,17.94-8.41,26.91-3.26-9-5.93-17.94-8.41-26.91L617,738.6c-.27-1.12-.66-2.24-.85-3.37a14.56,14.56,0,0,1,.14-3.36c.07-1.12,0-2.24,0-3.36V651.22h72.83v73.54c0,1,.18,2.11.25,3.17a8.92,8.92,0,0,1-.4,3.18l-1.72,6.35C684.94,745.93,682.37,754.4,679.17,762.87Z"/><path class="cls-1" d="M373.66,768.87c-3.39-9-6.07-17.94-8.54-26.91l-.91-3.36a23.83,23.83,0,0,1-.79-3.37,18,18,0,0,1,.18-3.36c.09-1.12,0-2.24.06-3.36V661.22l10,10H320.83l10-10v63.54c1,4.23-1,8.47-2,12.7-2.38,8.47-4.93,16.94-8,25.41-3.08-8.47-5.63-16.94-8-25.41-1-4.23-2.94-8.47-2-12.7V651.22h72.83v77.29c0,1.12,0,2.24.07,3.36a17.21,17.21,0,0,1,.17,3.36,23.79,23.79,0,0,1-.78,3.37l-.91,3.36C379.73,750.93,377.05,759.9,373.66,768.87Z"/></svg>