<svg xmlns="http://www.w3.org/2000/svg" viewBox="0 0 300 300"><defs><style>.cls-1{fill:#11457e;}.cls-2{fill:#d7141a;}</style></defs><title>detail</title><g id="Layer_3" data-name="Layer 3"><path class="cls-1" d="M168.71,218.34a87,87,0,1,1,87-87.05A87.15,87.15,0,0,1,168.71,218.34Zm0-154.1a67.05,67.05,0,1,0,67,67.05A67.13,67.13,0,0,0,168.71,64.24Z"/><path class="cls-2" d="M-88.7,398.7a9.93,9.93,0,0,1-7.07-2.93,10,10,0,0,1,0-14.14L84.59,201.27a10,10,0,0,1,14.14,14.14L-81.63,395.77A9.93,9.93,0,0,1-88.7,398.7Z"/></g></svg>