<svg xmlns="http://www.w3.org/2000/svg" viewBox="0 0 300 300"><defs><style>.cls-1{fill:#3b5998;}.cls-2{fill:#fff;}</style></defs><title>fb</title><g id="Layer_3" data-name="Layer 3"><rect class="cls-1" x="-27" y="-39.77" width="373.09" height="373.09"/><path class="cls-2" d="M214.05,78H86a8,8,0,0,0-8,8V214.1a8,8,0,0,0,8,7.9h69V166.31H136.22V144.52h18.7v-16c0-18.6,11.36-28.73,28-28.73a151.54,151.54,0,0,1,16.77.86v19.4H188.16c-9,0-10.74,4.29-10.74,10.58v13.89H199l-2.8,21.79H177.42V222h36.63a8,8,0,0,0,7.95-7.95V86A8,8,0,0,0,214.05,78Z"/></g></svg>