<svg xmlns="http://www.w3.org/2000/svg" xmlns:xlink="http://www.w3.org/1999/xlink" viewBox="0 0 300 300"><defs><style>.cls-1{fill:none;}.cls-2{fill:#888;}.cls-3{clip-path:url(#clip-path);}.cls-4{fill:#fff;}</style><clipPath id="clip-path"><polygon class="cls-1" points="218.82 56.68 82.84 150.09 218.82 243.82 218.82 56.68"/></clipPath></defs><title>icon-audio</title><g id="Layer_1" data-name="Layer 1"><path class="cls-2" d="M0,0V300H300V0Z"/></g><g id="Layer_3" data-name="Layer 3"><g class="cls-3"><path class="cls-4" d="M84.61,252.54A102.45,102.45,0,1,1,187.06,150.09,102.56,102.56,0,0,1,84.61,252.54Zm0-193.39a90.95,90.95,0,1,0,91,90.94A91,91,0,0,0,84.61,59.15Z"/><path class="cls-4" d="M84.61,280.54C12.68,280.54-45.83,222-45.83,150.09S12.68,19.65,84.61,19.65,215.06,78.17,215.06,150.09A130.6,130.6,0,0,1,84.61,280.54Zm0-249.76A119.32,119.32,0,1,0,203.93,150.09,119.44,119.44,0,0,0,84.61,30.78Z"/><circle class="cls-4" cx="82.84" cy="150.09" r="74.56"/></g><rect class="cls-4" x="83.07" y="125.26" width="35.93" height="49.67"/></g></svg>