<svg xmlns="http://www.w3.org/2000/svg" xmlns:xlink="http://www.w3.org/1999/xlink" viewBox="0 0 1600 1000"><defs><style>.cls-1,.cls-15{fill:none;}.cls-2{fill:#eee;}.cls-3{font-size:120px;font-family:TitilliumWeb-Bold, Titillium Web;font-weight:700;}.cls-18,.cls-3{fill:#d7141a;}.cls-4{font-size:75px;}.cls-19,.cls-4{fill:#11457e;}.cls-5{letter-spacing:-0.01em;}.cls-6{letter-spacing:-0.01em;}.cls-7{letter-spacing:-0.01em;}.cls-8{letter-spacing:0em;}.cls-9{font-size:36px;fill:#888;font-family:TitilliumWeb-Regular, Titillium Web;}.cls-10{letter-spacing:-0.01em;}.cls-11{letter-spacing:-0.01em;}.cls-12{letter-spacing:-0.01em;}.cls-13{letter-spacing:0em;}.cls-14{letter-spacing:0em;}.cls-15{stroke:#888;}.cls-15,.cls-16{stroke-miterlimit:10;}.cls-16{fill:#fff;stroke:#aaa;}.cls-17{clip-path:url(#clip-path);}.cls-20{fill:#af141a;}</style><clipPath id="clip-path"><circle class="cls-1" cx="349" cy="500" r="150"/></clipPath></defs><title>muj-tip</title><g id="Layer_1" data-name="Layer 1"><rect class="cls-2" width="1600" height="1000"/><text class="cls-3" transform="translate(589.83 446.24)">Můj tip<tspan class="cls-4"><tspan class="cls-5" x="0" y="100">K</tspan><tspan x="43.42" y="100">do vyhraje a </tspan><tspan class="cls-6" x="452.54" y="100">k</tspan><tspan x="490.64" y="100">do získá </tspan><tspan class="cls-7" x="0" y="185">v</tspan><tspan class="cls-8" x="36.83" y="185">e </tspan><tspan class="cls-7" x="91.57" y="185">v</tspan><tspan x="128.4" y="185">olbách můj hlas</tspan></tspan></text></g><g id="Layer_3" data-name="Layer 3"><text class="cls-9" transform="translate(88.5 969.03)">senat18.p<tspan class="cls-10" x="151.99" y="0">r</tspan><tspan x="164.09" y="0">ogra</tspan><tspan class="cls-11" x="232.09" y="0">m</tspan><tspan class="cls-12" x="261.97" y="0">y</tspan><tspan class="cls-13" x="279.03" y="0">d</tspan><tspan class="cls-12" x="298.08" y="0">ov</tspan><tspan class="cls-14" x="333.75" y="0">oleb.cz</tspan></text><line class="cls-15" x1="67.25" y1="959.53" x2="38.75" y2="959.53"/><line class="cls-15" x1="67.25" y1="959.53" x2="57.56" y2="949.84"/><circle class="cls-16" cx="349" cy="500" r="150"/><g class="cls-17"><path class="cls-18" d="M417.17,507.33,404.85,534.5h6a4,4,0,0,1,4,4V559a4,4,0,0,1-4,4H287.19a4,4,0,0,1-4-4V538.5a4,4,0,0,1,4-4H301.5l12.32-27.17H199V650.5H499V507.33Z"/><polygon class="cls-19" points="318.43 552.77 385.59 552.77 427.61 460.12 360.1 429.5 306.62 547.41 318.43 552.77"/><rect class="cls-20" x="199" y="592.5" width="300" height="58"/></g></g></svg>