<svg xmlns="http://www.w3.org/2000/svg" xmlns:xlink="http://www.w3.org/1999/xlink" viewBox="0 0 300 300"><defs><style>.cls-1{fill:none;}.cls-2{fill:#aaa;}.cls-3{fill:#ccc;}.cls-4{clip-path:url(#clip-path);}.cls-5{fill:#fff;}</style><clipPath id="clip-path"><path class="cls-1" d="M150-79.1C23.47-79.1-79.1,23.47-79.1,150S23.47,379.1,150,379.1,379.1,276.53,379.1,150,276.53-79.1,150-79.1ZM150,243a93,93,0,1,1,93-93A93,93,0,0,1,150,243Z"/></clipPath></defs><title>tip</title><g id="Layer_3" data-name="Layer 3"><path class="cls-2" d="M164.4,98.31v105.6H142.32V123.27L119.44,138l-10.08-16.48,34.88-23.2Z"/><path class="cls-3" d="M149.9,245.84a95.74,95.74,0,1,1,95.73-95.74A95.85,95.85,0,0,1,149.9,245.84Zm0-185.48a89.74,89.74,0,1,0,89.73,89.74A89.85,89.85,0,0,0,149.9,60.36Z"/><g class="cls-4"><polygon class="cls-5" points="-48.07 264.61 -78.73 150.19 149.89 150.19 35.69 -47.99 150.11 -78.65 149.89 150.19 348.29 35.77 378.95 150.19 149.89 150.19 264.53 348.37 150.11 379.03 149.89 150.19 -48.07 264.61"/><polygon class="cls-3" points="-78.73 150.18 -48.06 35.76 149.92 150.08 150.12 -78.65 264.54 -47.99 149.92 150.08 378.95 150.2 348.28 264.62 149.92 150.08 150.1 379.03 35.68 348.36 149.92 150.08 -78.73 150.18"/><polygon class="cls-2" points="-48.07 35.77 35.69 -47.99 150 150 264.53 -47.99 348.29 35.77 150 150 348.29 264.61 264.53 348.37 150 150 35.69 348.37 -48.07 264.61 150 150 -48.07 35.77"/></g></g></svg>