<svg xmlns="http://www.w3.org/2000/svg" viewBox="0 0 300 300"><defs><style>.cls-1{fill:#1da1f2;}.cls-2{fill:#fff;}</style></defs><title>icon-tw</title><g id="Layer_3" data-name="Layer 3"><rect class="cls-1" x="-27" y="-36.54" width="373.09" height="373.09"/><path class="cls-2" d="M123.27,219.51c64.55,0,99.85-53.48,99.85-99.85,0-1.52,0-3-.1-4.54A71.51,71.51,0,0,0,240.53,97a70.25,70.25,0,0,1-20.15,5.52,35.26,35.26,0,0,0,15.43-19.41,70.42,70.42,0,0,1-22.29,8.52,35.11,35.11,0,0,0-60.72,24,34.55,34.55,0,0,0,.92,8A99.61,99.61,0,0,1,81.38,86.92a35.1,35.1,0,0,0,10.86,46.85,34.9,34.9,0,0,1-15.9-4.39v.45a35.11,35.11,0,0,0,28.15,34.4,34.8,34.8,0,0,1-15.85.6,35.15,35.15,0,0,0,32.79,24.38,70.44,70.44,0,0,1-43.59,15,72.36,72.36,0,0,1-8.37-.48,99.37,99.37,0,0,0,53.8,15.76"/></g></svg>