<svg xmlns="http://www.w3.org/2000/svg" viewBox="0 0 800 400"><defs><style>.cls-1{fill:#11457e;}.cls-2{fill:#fff;}</style></defs><title>who</title><g id="Layer_3" data-name="Layer 3"><rect class="cls-1" x="79.6" y="17.1" width="640.8" height="305.8" rx="30" ry="30"/><rect class="cls-1" x="331.25" y="221.25" width="137.5" height="137.5" rx="4" ry="4" transform="translate(322.22 -197.9) rotate(45)"/><path class="cls-2" d="M193.71,92.33v-11h45v11h-16.2v50.21H210.09V92.33Z"/><path class="cls-2" d="M246.32,91.79V79.54h12.06V91.79Zm0,50.75v-45h12.06v45Z"/><path class="cls-2" d="M269.64,161.45V97.54h12V100q5.85-3.51,10.26-3.51,9.09,0,13.41,5.45t4.32,18.5q0,13.05-4.77,18.13t-15.66,5.08a39.92,39.92,0,0,1-6.39-.54l-1.08-.17v18.54Zm19.89-54.19a18.11,18.11,0,0,0-6.75,1.36l-1.08.44v23.58a51.94,51.94,0,0,0,6.57.54c3.48,0,5.87-1,7.16-3.06s1.93-5.51,1.93-10.44Q297.36,107.28,289.53,107.26Z"/><path class="cls-2" d="M331.16,142.54H319.1v-45h12v2.52c4.08-2.39,7.83-3.6,11.25-3.6q9,0,12.42,5.32t3.42,16.38v24.38H346.1v-24c0-3.83-.45-6.67-1.35-8.5s-2.7-2.75-5.4-2.75a20.41,20.41,0,0,0-7.11,1.27l-1.08.35Z"/><path class="cls-2" d="M382,131.16A9,9,0,0,0,388,133c5.58,0,10.56-.17,14.94-.54l2.52-.26.18,8.9A79.86,79.86,0,0,1,387,143.62q-10.17,0-14.76-5.4t-4.59-17.55q0-24.19,19.89-24.21,19.62,0,19.62,20.34l-.9,8.37H379.75C379.81,127.94,380.54,129.93,382,131.16Zm1.31-40.82L371.92,76.75H383l4.14,6,4.14-6h11.07L390.82,90.34Zm12,25.66c0-3.61-.57-6.11-1.71-7.52s-3.14-2.11-6-2.11-4.86.73-6,2.2-1.78,4-1.84,7.43Z"/><path class="cls-2" d="M442,107.8H430.92v18.45a36.59,36.59,0,0,0,.14,3.83,3.1,3.1,0,0,0,1,1.93,3.74,3.74,0,0,0,2.65.82l6.84-.19.54,9.64a46.39,46.39,0,0,1-9.18,1.34q-8.1,0-11.07-3.64t-3-13.45V107.8h-5.31V97.54h5.31V85h12.06v12.5H442Z"/><path class="cls-2" d="M462.52,131.16A9,9,0,0,0,468.6,133c5.58,0,10.56-.17,14.94-.54l2.52-.26.18,8.9a79.93,79.93,0,0,1-18.72,2.52q-10.18,0-14.76-5.4t-4.59-17.55q0-24.19,19.89-24.21,19.62,0,19.62,20.34l-.9,8.37H460.32C460.37,127.94,461.11,129.93,462.52,131.16ZM475.8,116c0-3.61-.58-6.11-1.71-7.52s-3.14-2.11-6-2.11-4.86.73-6,2.2-1.79,4-1.84,7.43Z"/><path class="cls-2" d="M552.92,108.79a145.9,145.9,0,0,0-15.61-1.44q-4.45,0-5.76.82a2.79,2.79,0,0,0-1.31,2.56,2.45,2.45,0,0,0,1.76,2.43,68.63,68.63,0,0,0,9,2q7.25,1.31,10.3,4.28c2,2,3.06,5.19,3.06,9.62q0,14.58-18.09,14.58a78.54,78.54,0,0,1-14.4-1.62l-2.88-.54.36-10.08a141.71,141.71,0,0,0,15.53,1.45q4.36,0,5.94-.86a2.75,2.75,0,0,0,1.57-2.56,2.66,2.66,0,0,0-1.66-2.53c-1.11-.54-4-1.19-8.64-2s-8.12-2.1-10.4-4-3.42-5.18-3.42-10,1.62-8.37,4.86-10.8,7.41-3.65,12.51-3.65a85.05,85.05,0,0,1,14.49,1.71l3,.54Z"/><path class="cls-2" d="M563.76,91.79V79.54h12.06V91.79Zm0,50.75v-45h12.06v45Z"/><path class="cls-2" d="M584.09,153.62l4.5-23.41h13.32l-8.1,23.41Z"/><path class="cls-2" d="M186.34,250.54H174.28v-63h12.06v35.83l4.59-.82,8.91-17h13.5l-11.7,21.34L214,250.54H200.38L191.29,233l-4.95.8Z"/><path class="cls-2" d="M258.52,187.54v63h-12v-1.88q-6.3,3-10.89,3-9.81,0-13.68-5.66t-3.87-18q0-12.28,4.64-17.91t14-5.63a49.77,49.77,0,0,1,8,.91l1.71.35V187.54ZM245.2,239.75l1.26-.28V215.8a50.77,50.77,0,0,0-8.82-.89q-7.29,0-7.29,13c0,4.67.54,8,1.62,10a5.63,5.63,0,0,0,5.36,3A31.7,31.7,0,0,0,245.2,239.75Z"/><path class="cls-2" d="M272.7,210.63q4.77-6.16,15.93-6.17t15.93,6.17q4.77,6.17,4.77,17.33,0,23.67-20.7,23.66T267.93,228Q267.93,216.8,272.7,210.63ZM282,238.12q1.85,3.25,6.61,3.25t6.62-3.25q1.85-3.24,1.84-10.16c0-4.63-.61-8-1.84-10.08s-3.44-3.16-6.62-3.16-5.38,1.06-6.61,3.16-1.85,5.45-1.85,10.08S280.79,236,282,238.12Z"/><path class="cls-2" d="M338.22,205.54h12.6l7.2,34.75h2.52l7.56-34.75h12.24l-10.8,45H349Z"/><path class="cls-2" d="M385.85,205.54h11.88l8.19,34.75H408l8.19-34.75h11.88l-15.84,63.91H400.43l4.95-18.91h-8.46Z"/><path class="cls-2" d="M447.48,250.54H435.42v-63h12.06v20.17q6.21-3.26,11.16-3.25,9,0,12.42,5.32t3.42,16.38v24.38H462.42V226.42q0-5.67-1.35-8.41t-5.4-2.75a23.76,23.76,0,0,0-7,1.08l-1.17.37Z"/><path class="cls-2" d="M485.45,250.54v-45h12v4.77a46.28,46.28,0,0,1,14.4-5.85v12.16q-7.29,1.53-12.51,3.14l-1.8.63v30.15Z"/><path class="cls-2" d="M553.9,219.58V238.3a7.16,7.16,0,0,0,.72,3,3.35,3.35,0,0,0,2.25,1.22l-.36,9.08a34.9,34.9,0,0,1-7.34-.62,16.51,16.51,0,0,1-5.53-2.53,30,30,0,0,1-13.23,3.15q-13.95,0-13.95-14.75,0-7.2,3.87-10.22t11.88-3.56l9.63-.71v-2.8c0-1.85-.42-3.13-1.26-3.82a6.37,6.37,0,0,0-4.05-1l-16.92.73-.36-8.37a69.63,69.63,0,0,1,18.31-2.62c5.79,0,10,1.21,12.51,3.6S553.9,214.31,553.9,219.58Zm-20.25,11.88q-5,.47-5,5.41c0,3.3,1.47,4.94,4.41,4.94a29.11,29.11,0,0,0,7.47-1.07l1.35-.36v-9.63Z"/><path class="cls-2" d="M565.72,248.38V205.54h12.06v42.93q0,9.18-3.19,13.55t-12.83,9.23L557,262.33a45.87,45.87,0,0,0,5.67-4.23,8.86,8.86,0,0,0,2.34-3.64A19.82,19.82,0,0,0,565.72,248.38Zm0-48.59V187.54h12.06v12.25Z"/><path class="cls-2" d="M601.58,239.16a9,9,0,0,0,6.08,1.84c5.58,0,10.56-.17,14.94-.54l2.52-.26.18,8.9a79.86,79.86,0,0,1-18.72,2.52q-10.17,0-14.76-5.4t-4.59-17.55q0-24.19,19.89-24.21,19.62,0,19.62,20.34l-.9,8.37H599.38C599.44,235.94,600.17,237.93,601.58,239.16ZM614.86,224c0-3.61-.57-6.11-1.71-7.52s-3.14-2.11-6-2.11-4.86.73-6,2.2-1.78,4-1.84,7.43Z"/></g></svg>